<?xml version="1.0" standalone="no"?>
<!DOCTYPE svg PUBLIC "-//W3C//DTD SVG 20010904//EN"
 "http://www.w3.org/TR/2001/REC-SVG-20010904/DTD/svg10.dtd">
<svg version="1.0" xmlns="http://www.w3.org/2000/svg"
 width="413.000000pt" height="413.000000pt" viewBox="0 0 413.000000 413.000000"
 preserveAspectRatio="xMidYMid meet">
<metadata>
Created by potrace 1.11, written by Peter Selinger 2001-2013
</metadata>
<g transform="translate(0.000000,413.000000) scale(0.100000,-0.100000)"
fill="#000000" stroke="none">
<path d="M1694 2777 c-203 -278 -371 -506 -374 -506 -7 -1 -245 258 -345 374
-77 89 -252 305 -290 358 -20 27 -21 28 -119 25 l-98 -3 348 -475 c191 -261
347 -479 347 -485 0 -6 -156 -224 -347 -485 l-348 -475 98 -3 c98 -3 99 -2
119 25 38 53 213 269 290 358 99 116 338 375 345 374 3 0 169 -225 370 -500
201 -276 368 -503 372 -505 3 -2 174 225 380 506 l373 509 33 -32 c100 -95
404 -452 540 -634 l77 -103 99 0 98 0 -15 24 c-9 13 -166 228 -348 477 -183
249 -332 458 -332 464 0 6 149 215 332 464 182 249 339 464 348 477 l15 24
-98 0 -99 0 -47 -64 c-134 -180 -371 -464 -519 -619 l-84 -88 -359 492 c-198
270 -367 501 -376 512 -16 19 -30 1 -386 -486z m522 -448 c72 -27 206 -110
310 -192 73 -58 84 -70 73 -83 -32 -38 -232 -178 -314 -219 -160 -81 -257 -81
-420 1 -69 35 -203 126 -286 195 l-42 35 84 66 c269 210 424 261 595 197z"/>
</g>
</svg>
